<?xml version="1.0" encoding="UTF-8"?> <svg xmlns="http://www.w3.org/2000/svg" width="156" height="61" viewBox="0 0 156 61" fill="none"> <path fill-rule="evenodd" clip-rule="evenodd" d="M89.2493 23.1253L102.273 23.1253L109.05 14.8029V30.7054H108.873C108.449 30.2106 107.966 29.7746 107.424 29.3976C106.152 28.5021 104.75 28.0543 103.218 28.0543C100.791 28.0543 98.7646 28.9263 97.1387 30.6701C95.5364 32.3904 94.7352 34.6408 94.7352 37.4215C94.7352 40.2022 95.5364 42.4645 97.1387 44.2083C98.7646 45.9286 100.791 46.7887 103.218 46.7887C104.773 46.7887 106.175 46.3528 107.424 45.4809C107.99 45.0803 108.473 44.6325 108.873 44.1377H109.05V46.4353H112.761V14.7843H109.05V14.7997L102.306 6.76141L95.4474 6.76141V10.5372L100.496 10.5372L104.153 14.7325L100.528 19.3495L91.1002 19.3495L87.1157 14.2067L84.1312 16.5193L89.2493 23.1253ZM77.5011 6.76152H90.5249L95.6431 13.3676L92.6585 15.6802L88.674 10.5374H79.2461L75.6214 14.798L79.2784 19.3496H84.3269V23.1254H77.4688L70.7228 14.7293L77.5011 6.76152ZM67.0082 46.4353V14.7325H70.7195V46.4353H67.0082ZM44.7543 37.4215C44.7543 40.2022 45.5555 42.4645 47.1578 44.2083C48.7837 45.9286 50.8102 46.7887 53.2373 46.7887C54.7925 46.7887 56.1945 46.3528 57.4434 45.4809C58.0089 45.0803 58.492 44.6325 58.8926 44.1377H59.0693V46.4353H62.7806V14.7869H59.0693V30.7054H58.8926C58.4684 30.2106 57.9854 29.7746 57.4434 29.3976C56.171 28.5021 54.7689 28.0543 53.2373 28.0543C50.8102 28.0543 48.7837 28.9263 47.1578 30.6701C45.5555 32.3904 44.7543 34.6408 44.7543 37.4215ZM48.6423 37.4215C48.6423 35.4892 49.1136 34.0046 50.0562 32.9677C50.9987 31.9308 52.2947 31.4124 53.9442 31.4124C55.4994 31.4124 56.7365 31.9426 57.6555 33.0031C58.598 34.0399 59.0693 35.5128 59.0693 37.4215C59.0693 39.3303 58.598 40.8149 57.6555 41.8754C56.7365 42.9123 55.4994 43.4307 53.9442 43.4307C52.2947 43.4307 50.9987 42.9123 50.0562 41.8754C49.1136 40.8385 48.6423 39.3539 48.6423 37.4215ZM23.906 37.4215C23.906 40.0609 24.8014 42.2878 26.5922 44.1023C28.4067 45.8933 30.6334 46.7887 33.2726 46.7887C35.9117 46.7887 38.1267 45.8933 39.9175 44.1023C41.7319 42.2878 42.6391 40.0609 42.6391 37.4215C42.6391 34.7822 41.7319 32.5671 39.9175 30.7761C38.1267 28.9616 35.9117 28.0543 33.2726 28.0543C30.6334 28.0543 28.4067 28.9616 26.5922 30.7761C24.8014 32.5671 23.906 34.7822 23.906 37.4215ZM27.794 37.4215C27.794 35.607 28.3006 34.1578 29.3139 33.0737C30.3271 31.9662 31.6467 31.4124 33.2726 31.4124C34.8985 31.4124 36.218 31.9662 37.2313 33.0737C38.2445 34.1578 38.7511 35.607 38.7511 37.4215C38.7511 39.2361 38.2445 40.6971 37.2313 41.8047C36.218 42.8887 34.8985 43.4307 33.2726 43.4307C31.6467 43.4307 30.3271 42.8887 29.3139 41.8047C28.3006 40.6971 27.794 39.2361 27.794 37.4215ZM73.8868 37.4215C73.8868 40.0609 74.7822 42.2878 76.5731 44.1023C78.3875 45.8933 80.6143 46.7887 83.2534 46.7887C85.8925 46.7887 88.1075 45.8933 89.8984 44.1023C91.7128 42.2878 92.62 40.0609 92.62 37.4215C92.62 34.7822 91.7128 32.5671 89.8984 30.7761C88.1075 28.9616 85.8925 28.0543 83.2534 28.0543C80.6143 28.0543 78.3875 28.9616 76.5731 30.7761C74.7822 32.5671 73.8868 34.7822 73.8868 37.4215ZM77.7748 37.4215C77.7748 35.607 78.2815 34.1578 79.2947 33.0737C80.3079 31.9662 81.6275 31.4124 83.2534 31.4124C84.8793 31.4124 86.1989 31.9662 87.2121 33.0737C88.2253 34.1578 88.732 35.607 88.732 37.4215C88.732 39.2361 88.2253 40.6971 87.2121 41.8047C86.1989 42.8887 84.8793 43.4307 83.2534 43.4307C81.6275 43.4307 80.3079 42.8887 79.2947 41.8047C78.2815 40.6971 77.7748 39.2361 77.7748 37.4215ZM100.037 32.9677C99.0945 34.0046 98.6232 35.4892 98.6232 37.4215C98.6232 39.3539 99.0945 40.8385 100.037 41.8754C100.98 42.9123 102.276 43.4307 103.925 43.4307C105.48 43.4307 106.717 42.9123 107.636 41.8754C108.579 40.8149 109.05 39.3303 109.05 37.4215C109.05 35.5128 108.579 34.0399 107.636 33.0031C106.717 31.9426 105.48 31.4124 103.925 31.4124C102.276 31.4124 100.98 31.9308 100.037 32.9677ZM116.989 19.294V46.4353H120.7V38.8355H123.528L129.007 46.4353H133.602L126.532 36.7146L133.071 28.4078H128.83L123.351 35.4774H120.7V19.294H116.989ZM136.005 44.2154C134.403 42.4716 133.602 40.2093 133.602 37.4286C133.602 34.6479 134.403 32.3974 136.005 30.6772C137.631 28.9333 139.657 28.0614 142.084 28.0614C143.616 28.0614 145.018 28.5092 146.291 29.4046C146.833 29.7817 147.316 30.2176 147.74 30.7125H147.916V28.4149H151.628V41.9139H149.244C148.803 43.1336 147.859 44.4582 146.613 45.3691C145.34 46.3117 144.02 46.7958 142.084 46.7958C139.657 46.7958 137.631 45.9357 136.005 44.2154ZM138.903 32.9748C137.961 34.0117 137.49 35.4963 137.49 37.4286C137.49 39.361 137.961 40.8456 138.903 41.8825C139.846 42.9193 141.142 43.4378 142.791 43.4378C144.347 43.4378 145.584 42.9193 146.503 41.8825C147.445 40.822 147.916 39.3374 147.916 37.4286C147.916 35.5198 147.445 34.047 146.503 33.0101C145.584 31.9497 144.347 31.4195 142.791 31.4195C141.142 31.4195 139.846 31.9379 138.903 32.9748ZM21.7992 37.409C21.7992 34.6283 20.998 32.366 19.3956 30.6222C17.7697 28.9019 15.7433 28.0418 13.3162 28.0418C11.3805 28.0418 10.0603 28.5259 8.78788 29.4685C7.54145 30.3795 6.59772 31.704 6.15686 32.9237H3.7758V28.3962H0.000976562V32.9263H3.7729L3.77288 60.0531H7.48418L7.4842 44.1251H7.66092C8.08506 44.62 8.56813 45.056 9.1101 45.433C10.3825 46.3285 11.7846 46.7762 13.3162 46.7762C15.7433 46.7762 17.7697 45.9043 19.3956 44.1605C20.998 42.4402 21.7992 40.1897 21.7992 37.409ZM17.9111 37.409C17.9111 39.3414 17.4399 40.826 16.4973 41.8629C15.5548 42.8997 14.2588 43.4182 12.6093 43.4182C11.0541 43.4182 9.81701 42.8879 8.89802 41.8275C7.95547 40.7906 7.4842 39.3178 7.4842 37.409C7.4842 35.5002 7.95547 34.0156 8.89802 32.9552C9.81701 31.9183 11.0541 31.3999 12.6093 31.3999C14.2588 31.3999 15.5548 31.9183 16.4973 32.9552C17.4399 33.992 17.9111 35.4767 17.9111 37.409ZM155.404 41.919V46.4491H151.629V41.919H155.404Z" fill="#6f02cd"></path> </svg>